<svg version="1.1" id="Layer_1" xmlns="http://www.w3.org/2000/svg" xmlns:xlink="http://www.w3.org/1999/xlink" x="0px" y="0px"
	 width="100%" viewBox="0 0 443 496" enable-background="new 0 0 443 496" xml:space="preserve">
<path fill="#FFFFFF" opacity="1.000000" stroke="none" 
	d="
M225.000000,497.000000 
	C150.019836,497.000000 75.539665,497.000000 1.029747,497.000000 
	C1.029747,331.730499 1.029747,166.461014 1.029747,1.095763 
	C148.563461,1.095763 296.127014,1.095763 443.845276,1.095763 
	C443.845276,166.333221 443.845276,331.666595 443.845276,497.000000 
	C371.127747,497.000000 298.313873,497.000000 225.000000,497.000000 
M201.776123,184.242218 
	C201.776123,184.242218 201.435654,184.336761 200.549667,184.156601 
	C196.933426,184.469910 193.286133,184.580673 189.705994,185.129456 
	C166.772522,188.644821 144.903900,195.405167 124.554710,206.744537 
	C120.961761,208.746674 117.276825,210.583740 113.198784,211.965286 
	C97.315903,191.974182 69.654144,189.199020 51.589874,205.784317 
	C29.386337,226.170044 33.940025,259.352753 61.034966,275.672089 
	C60.526489,277.419983 60.068920,279.184540 59.501617,280.913147 
	C54.113670,297.330505 51.720154,313.961639 53.845055,331.341339 
	C58.165684,366.679993 75.907272,394.040558 102.993118,415.972748 
	C124.308449,433.232330 148.772995,444.055878 175.514465,449.557800 
	C185.328354,451.576965 195.421585,452.238434 206.259155,453.617340 
	C224.142578,454.485565 241.822632,452.997498 259.263824,448.926819 
	C295.117340,440.558746 326.392639,424.000427 349.907227,395.240997 
	C379.286407,359.308868 386.979767,319.184784 370.710693,274.880096 
	C388.649872,264.219940 397.406067,246.688095 393.442017,229.095428 
	C389.581085,211.960587 379.209747,200.460220 362.183807,196.357468 
	C344.106873,192.001450 329.161835,198.021790 317.470306,212.918961 
	C317.470306,212.918961 317.010925,212.952469 316.596008,212.435928 
	C291.169281,195.854568 263.121887,187.037781 233.054657,184.115952 
	C231.443558,183.959396 229.920776,182.894058 228.658066,181.388458 
	C228.570038,180.185562 228.482010,178.982651 228.571533,177.502014 
	C228.571533,177.502014 228.403229,177.218582 228.680237,176.293167 
	C228.680237,165.254745 228.680237,154.216309 228.680237,142.724426 
	C242.739838,142.724426 255.837158,142.724426 269.244202,143.363876 
	C273.660706,147.643677 278.077240,151.923462 283.074280,156.677765 
	C296.247742,162.799744 309.755493,160.723465 319.511200,151.077057 
	C328.963409,141.730743 331.482849,127.743301 325.902100,115.595879 
	C318.238495,98.914635 296.195831,92.056290 281.471710,102.044800 
	C278.451630,104.680412 275.075653,107.013680 272.509216,110.034691 
	C269.816803,113.204002 267.799164,116.892120 261.995392,116.829048 
	C246.690994,116.820534 231.386581,116.812019 215.716003,116.450951 
	C215.128220,116.601555 214.540451,116.752159 213.203766,116.991966 
	C206.101639,118.820877 202.843826,123.074188 202.785522,131.194153 
	C202.661819,148.422989 202.686432,165.652924 202.313507,183.212921 
	C202.130341,183.490189 202.062027,183.793365 201.776123,184.242218 
M303.858032,67.000870 
	C303.717346,62.744038 300.977753,61.947895 297.413849,61.991352 
	C293.737610,62.036179 291.801147,64.141808 291.417328,67.401360 
	C291.012665,70.837959 291.265411,74.351807 291.228363,77.831879 
	C291.187225,81.695862 292.907043,84.270226 296.851440,84.729568 
	C300.270203,85.127678 303.650543,81.692574 303.797729,77.844925 
	C303.924408,74.533890 303.851929,71.215225 303.858032,67.000870 
M277.154419,81.489120 
	C275.306061,78.190659 273.515411,74.858116 271.592499,71.603706 
	C269.811981,68.590324 266.743164,68.213615 264.297516,69.788155 
	C262.635345,70.858315 260.860413,73.873978 261.233734,75.553230 
	C262.066559,79.299141 264.157440,82.779526 265.840637,86.318176 
	C267.518646,89.845779 270.216064,92.010094 274.190063,90.463264 
	C277.898987,89.019600 278.614288,85.867561 277.154419,81.489120 
M318.838013,167.095261 
	C318.112366,169.336441 316.196411,172.085648 316.893738,173.719543 
	C318.683258,177.912567 321.259277,181.945038 324.301422,185.342896 
	C325.533142,186.718643 329.114197,187.120453 331.027283,186.392166 
	C332.504364,185.829865 334.184937,182.518616 333.777527,180.947495 
	C332.818787,177.250168 330.725708,173.832291 328.979309,170.357758 
	C326.947418,166.315140 323.721710,165.087646 318.838013,167.095261 
M352.837158,156.790665 
	C349.567657,154.817902 346.392487,152.660797 343.001465,150.925522 
	C339.772614,149.273254 336.468933,149.160431 334.303467,152.772125 
	C332.201630,156.277786 333.271149,159.083969 336.613556,161.226501 
	C339.127136,162.837753 341.513153,164.659271 344.087982,166.160782 
	C346.979095,167.846786 350.086731,168.474045 352.794098,165.860458 
	C355.461212,163.285706 355.506317,160.325409 352.837158,156.790665 
M344.403137,110.157021 
	C347.175903,108.660568 349.960449,107.185356 352.718445,105.662170 
	C356.013977,103.842094 357.801666,101.294556 356.039215,97.492844 
	C354.146912,93.411079 350.611359,93.392677 347.139618,94.704094 
	C344.378571,95.747055 341.919708,97.570137 339.278168,98.954247 
	C335.709869,100.823952 333.895447,103.786240 335.313934,107.553452 
	C336.743652,111.350517 340.196259,111.484390 344.403137,110.157021 
M341.063049,132.238022 
	C342.543457,133.745590 343.867401,136.308578 345.534729,136.555786 
	C349.913483,137.205017 354.561981,137.457336 358.856720,136.613846 
	C360.819946,136.228271 363.298309,132.999329 363.508057,130.860428 
	C363.679504,129.111664 361.121735,125.850616 359.261017,125.405815 
	C355.360931,124.473503 351.123505,124.913460 347.023712,124.865944 
	C342.638519,124.815109 340.646545,127.042091 341.063049,132.238022 
M334.012115,77.385933 
	C334.169006,74.505707 333.631531,71.373703 330.360107,71.375954 
	C327.770508,71.377739 324.552094,72.631546 322.749237,74.453667 
	C320.375031,76.853226 318.490509,80.181694 317.590179,83.440811 
	C316.976532,85.662148 317.645416,89.839470 319.110779,90.642555 
	C321.103607,91.734726 325.526733,91.471771 326.912964,89.960396 
	C329.944000,86.655731 331.717560,82.197762 334.012115,77.385933 
z"/>
<path fill="#B2BEF0" opacity="1.000000" stroke="none" 
	d="
M113.634369,212.497040 
	C117.276825,210.583740 120.961761,208.746674 124.554710,206.744537 
	C144.903900,195.405167 166.772522,188.644821 189.705994,185.129456 
	C193.286133,184.580673 196.933426,184.469910 201.307587,184.403259 
	C204.520554,184.913849 207.002380,185.029617 209.425934,185.467667 
	C219.293289,187.251114 229.142807,189.133286 239.185242,191.043182 
	C239.371613,191.107269 239.765427,191.123413 240.019302,191.379211 
	C243.187119,192.575470 246.101044,193.515930 249.329529,194.603973 
	C250.100021,194.827103 250.555969,194.902649 251.237854,195.238556 
	C254.318375,196.596588 257.172974,197.694275 260.244568,198.880646 
	C260.461578,198.969315 260.925354,199.037918 261.145111,199.288956 
	C262.214996,199.787506 263.065125,200.035019 264.090240,200.473816 
	C264.753296,200.821701 265.241333,200.978302 265.959320,201.399155 
	C268.759521,202.868988 271.329773,204.074585 274.118195,205.529572 
	C290.824341,215.389633 305.625519,226.933273 318.279694,241.420044 
	C357.412689,286.220306 356.870453,353.715912 316.779572,397.780731 
	C289.717438,427.525299 255.885971,444.386078 216.586777,451.067657 
	C212.823502,451.707520 209.119125,452.693787 205.387390,453.519226 
	C195.421585,452.238434 185.328354,451.576965 175.514465,449.557800 
	C148.772995,444.055878 124.308449,433.232330 102.993118,415.972748 
	C75.907272,394.040558 58.165684,366.679993 53.845055,331.341339 
	C51.720154,313.961639 54.113670,297.330505 59.501617,280.913147 
	C60.068920,279.184540 60.526489,277.419983 61.326519,275.085083 
	C62.701576,272.442902 63.833416,270.411591 64.861023,268.328857 
	C74.128052,249.546707 87.393311,234.041489 103.594696,220.923096 
	C106.989647,218.174164 110.290276,215.308762 113.634369,212.497040 
M251.064331,344.493103 
	C251.065231,348.319214 250.931412,352.151031 251.092911,355.970337 
	C251.533279,366.384430 258.409149,373.474274 268.203888,373.774719 
	C275.650452,374.003113 283.789337,366.722229 283.881073,358.623138 
	C284.163727,333.673798 284.163544,308.717163 283.869843,283.768127 
	C283.793427,277.277283 279.735840,272.702820 273.594635,270.346771 
	C267.470764,267.997406 262.011993,269.085480 256.960480,273.386810 
	C252.162003,277.472748 251.104202,282.829407 251.086090,288.599518 
	C251.028671,306.897980 251.064667,325.196716 251.064331,344.493103 
M166.205109,373.063904 
	C174.564194,372.155334 180.006592,366.226471 180.030121,357.670624 
	C180.095169,334.012604 180.074661,310.354279 180.058395,286.696075 
	C180.051270,276.324463 173.150024,268.877747 163.797073,269.058838 
	C154.545715,269.237946 147.975082,276.521027 147.968735,286.666046 
	C147.954361,309.657806 147.953751,332.649597 147.966919,355.641357 
	C147.973572,367.289551 153.713074,373.033142 166.205109,373.063904 
z"/>
<path fill="#4D55E0" opacity="1.000000" stroke="none" 
	d="
M239.765427,191.123413 
	C239.765427,191.123413 239.371613,191.107269 239.110443,190.676437 
	C236.366150,189.251373 233.883011,188.257141 231.399872,187.262909 
	C231.494278,186.859085 231.588684,186.455246 231.683090,186.051422 
	C234.128510,186.051422 236.596222,185.846054 239.013123,186.108582 
	C241.480850,186.376617 243.879639,187.225372 246.341293,187.611404 
	C267.846252,190.983734 288.123749,197.912888 307.051056,208.665527 
	C308.085999,209.253479 308.382477,211.141266 308.988647,212.355789 
	C311.558472,212.546921 314.284698,212.749695 317.010925,212.952469 
	C317.010925,212.952469 317.470306,212.918961 317.978027,213.132843 
	C319.257660,214.192505 319.887024,215.267654 320.823059,215.849274 
	C332.928680,223.371384 342.851776,233.298340 351.693359,244.300690 
	C359.252686,253.707382 365.712067,263.858765 370.094818,275.200958 
	C386.979767,319.184784 379.286407,359.308868 349.907227,395.240997 
	C326.392639,424.000427 295.117340,440.558746 259.263824,448.926819 
	C241.822632,452.997498 224.142578,454.485565 205.823273,453.568298 
	C209.119125,452.693787 212.823502,451.707520 216.586777,451.067657 
	C255.885971,444.386078 289.717438,427.525299 316.779572,397.780731 
	C356.870453,353.715912 357.412689,286.220306 318.279694,241.420044 
	C305.625519,226.933273 290.824341,215.389633 273.985992,205.198242 
	C271.000244,203.456635 268.364807,202.295776 265.729401,201.134903 
	C265.241333,200.978302 264.753296,200.821701 263.943359,200.147705 
	C262.722748,199.432861 261.824066,199.235382 260.925354,199.037918 
	C260.925354,199.037918 260.461578,198.969315 260.220856,198.507599 
	C256.990723,197.023331 254.001328,196.000763 251.011917,194.978195 
	C250.555969,194.902649 250.100021,194.827103 249.220657,194.309830 
	C245.786636,192.953217 242.776031,192.038315 239.765427,191.123413 
z"/>
<path fill="#497BE8" opacity="1.000000" stroke="none" 
	d="
M113.416573,212.231171 
	C110.290276,215.308762 106.989647,218.174164 103.594696,220.923096 
	C87.393311,234.041489 74.128052,249.546707 64.861023,268.328857 
	C63.833416,270.411591 62.701576,272.442902 61.344574,274.685852 
	C33.940025,259.352753 29.386337,226.170044 51.589874,205.784317 
	C69.654144,189.199020 97.315903,191.974182 113.416573,212.231171 
z"/>
<path fill="#487AE9" opacity="1.000000" stroke="none" 
	d="
M370.402771,275.040527 
	C365.712067,263.858765 359.252686,253.707382 351.693359,244.300690 
	C342.851776,233.298340 332.928680,223.371384 320.823059,215.849274 
	C319.887024,215.267654 319.257660,214.192505 318.207947,213.146454 
	C329.161835,198.021790 344.106873,192.001450 362.183807,196.357468 
	C379.209747,200.460220 389.581085,211.960587 393.442017,229.095428 
	C397.406067,246.688095 388.649872,264.219940 370.402771,275.040527 
z"/>
<path fill="#497BE8" opacity="1.000000" stroke="none" 
	d="
M228.393997,177.779755 
	C228.482010,178.982651 228.570038,180.185562 228.252182,182.029083 
	C225.996140,183.113083 224.154846,183.889664 222.294205,183.939194 
	C215.952072,184.108047 209.603104,184.020752 203.130463,183.730621 
	C202.886200,183.247498 202.768219,183.064941 202.650238,182.882401 
	C202.686432,165.652924 202.661819,148.422989 202.785522,131.194153 
	C202.843826,123.074188 206.101639,118.820877 213.934006,117.012650 
	C215.136887,116.956718 215.609543,116.880112 216.082184,116.803497 
	C231.386581,116.812019 246.690994,116.820534 262.862976,116.917786 
	C265.085236,117.188850 266.439911,117.371185 268.351624,117.628494 
	C264.493927,126.513260 266.066559,134.651184 268.934479,142.724426 
	C255.837158,142.724426 242.739838,142.724426 228.680237,142.724426 
	C228.680237,154.216309 228.680237,165.254745 228.496353,176.818512 
	C228.312469,177.343857 228.393997,177.779755 228.393997,177.779755 
z"/>
<path fill="#4E56DF" opacity="1.000000" stroke="none" 
	d="
M282.202179,101.999046 
	C296.195831,92.056290 318.238495,98.914635 325.902100,115.595879 
	C331.482849,127.743301 328.963409,141.730743 319.511200,151.077057 
	C309.755493,160.723465 296.247742,162.799744 283.009094,156.142487 
	C283.691162,154.945297 284.403229,154.237885 285.190918,153.628113 
	C303.137726,139.735214 301.630035,113.623672 282.202179,101.999046 
z"/>
<path fill="#B2BEF1" opacity="1.000000" stroke="none" 
	d="
M281.836945,102.021927 
	C301.630035,113.623672 303.137726,139.735214 285.190918,153.628113 
	C284.403229,154.237885 283.691162,154.945297 282.718811,155.905243 
	C278.077240,151.923462 273.660706,147.643677 269.089355,143.044159 
	C266.066559,134.651184 264.493927,126.513260 268.351624,117.628494 
	C266.439911,117.371185 265.085236,117.188850 263.326233,116.902802 
	C267.799164,116.892120 269.816803,113.204002 272.509216,110.034691 
	C275.075653,107.013680 278.451630,104.680412 281.836945,102.021927 
z"/>
<path fill="#5B62D3" opacity="1.000000" stroke="none" 
	d="
M203.256744,184.031219 
	C209.603104,184.020752 215.952072,184.108047 222.294205,183.939194 
	C224.154846,183.889664 225.996140,183.113083 228.101593,182.460739 
	C229.920776,182.894058 231.443558,183.959396 233.054657,184.115952 
	C263.121887,187.037781 291.169281,195.854568 316.803467,212.694199 
	C314.284698,212.749695 311.558472,212.546921 308.988647,212.355789 
	C308.382477,211.141266 308.085999,209.253479 307.051056,208.665527 
	C288.123749,197.912888 267.846252,190.983734 246.341293,187.611404 
	C243.879639,187.225372 241.480850,186.376617 239.013123,186.108582 
	C236.596222,185.846054 234.128510,186.051422 231.683090,186.051422 
	C231.588684,186.455246 231.494278,186.859085 231.399872,187.262909 
	C233.883011,188.257141 236.366150,189.251373 238.924088,190.612335 
	C229.142807,189.133286 219.293289,187.251114 209.425934,185.467667 
	C207.002380,185.029617 204.520554,184.913849 201.750580,184.493347 
	C201.435654,184.336761 201.776123,184.242218 202.232101,184.196533 
	C202.877640,184.110977 203.067184,184.071091 203.256744,184.031219 
z"/>
<path fill="#F8E17A" opacity="1.000000" stroke="none" 
	d="
M303.862762,67.450401 
	C303.851929,71.215225 303.924408,74.533890 303.797729,77.844925 
	C303.650543,81.692574 300.270203,85.127678 296.851440,84.729568 
	C292.907043,84.270226 291.187225,81.695862 291.228363,77.831879 
	C291.265411,74.351807 291.012665,70.837959 291.417328,67.401360 
	C291.801147,64.141808 293.737610,62.036179 297.413849,61.991352 
	C300.977753,61.947895 303.717346,62.744038 303.862762,67.450401 
z"/>
<path fill="#F8E17B" opacity="1.000000" stroke="none" 
	d="
M277.295044,81.857361 
	C278.614288,85.867561 277.898987,89.019600 274.190063,90.463264 
	C270.216064,92.010094 267.518646,89.845779 265.840637,86.318176 
	C264.157440,82.779526 262.066559,79.299141 261.233734,75.553230 
	C260.860413,73.873978 262.635345,70.858315 264.297516,69.788155 
	C266.743164,68.213615 269.811981,68.590324 271.592499,71.603706 
	C273.515411,74.858116 275.306061,78.190659 277.295044,81.857361 
z"/>
<path fill="#F8E17A" opacity="1.000000" stroke="none" 
	d="
M319.147705,166.863281 
	C323.721710,165.087646 326.947418,166.315140 328.979309,170.357758 
	C330.725708,173.832291 332.818787,177.250168 333.777527,180.947495 
	C334.184937,182.518616 332.504364,185.829865 331.027283,186.392166 
	C329.114197,187.120453 325.533142,186.718643 324.301422,185.342896 
	C321.259277,181.945038 318.683258,177.912567 316.893738,173.719543 
	C316.196411,172.085648 318.112366,169.336441 319.147705,166.863281 
z"/>
<path fill="#F8E179" opacity="1.000000" stroke="none" 
	d="
M353.092590,157.059509 
	C355.506317,160.325409 355.461212,163.285706 352.794098,165.860458 
	C350.086731,168.474045 346.979095,167.846786 344.087982,166.160782 
	C341.513153,164.659271 339.127136,162.837753 336.613556,161.226501 
	C333.271149,159.083969 332.201630,156.277786 334.303467,152.772125 
	C336.468933,149.160431 339.772614,149.273254 343.001465,150.925522 
	C346.392487,152.660797 349.567657,154.817902 353.092590,157.059509 
z"/>
<path fill="#F8E17A" opacity="1.000000" stroke="none" 
	d="
M344.048798,110.332054 
	C340.196259,111.484390 336.743652,111.350517 335.313934,107.553452 
	C333.895447,103.786240 335.709869,100.823952 339.278168,98.954247 
	C341.919708,97.570137 344.378571,95.747055 347.139618,94.704094 
	C350.611359,93.392677 354.146912,93.411079 356.039215,97.492844 
	C357.801666,101.294556 356.013977,103.842094 352.718445,105.662170 
	C349.960449,107.185356 347.175903,108.660568 344.048798,110.332054 
z"/>
<path fill="#F8E179" opacity="1.000000" stroke="none" 
	d="
M341.047211,131.821487 
	C340.646545,127.042091 342.638519,124.815109 347.023712,124.865944 
	C351.123505,124.913460 355.360931,124.473503 359.261017,125.405815 
	C361.121735,125.850616 363.679504,129.111664 363.508057,130.860428 
	C363.298309,132.999329 360.819946,136.228271 358.856720,136.613846 
	C354.561981,137.457336 349.913483,137.205017 345.534729,136.555786 
	C343.867401,136.308578 342.543457,133.745590 341.047211,131.821487 
z"/>
<path fill="#F8E17A" opacity="1.000000" stroke="none" 
	d="
M334.008453,77.798409 
	C331.717560,82.197762 329.944000,86.655731 326.912964,89.960396 
	C325.526733,91.471771 321.103607,91.734726 319.110779,90.642555 
	C317.645416,89.839470 316.976532,85.662148 317.590179,83.440811 
	C318.490509,80.181694 320.375031,76.853226 322.749237,74.453667 
	C324.552094,72.631546 327.770508,71.377739 330.360107,71.375954 
	C333.631531,71.373703 334.169006,74.505707 334.008453,77.798409 
z"/>
<path fill="#B2BEF1" opacity="1.000000" stroke="none" 
	d="
M215.899094,116.627228 
	C215.609543,116.880112 215.136887,116.956718 214.308456,116.968048 
	C214.540451,116.752159 215.128220,116.601555 215.899094,116.627228 
z"/>
<path fill="#5B62D3" opacity="1.000000" stroke="none" 
	d="
M228.482758,177.640884 
	C228.393997,177.779755 228.312469,177.343857 228.357849,177.281219 
	C228.403229,177.218582 228.571533,177.502014 228.482758,177.640884 
z"/>
<path fill="#B2BEF0" opacity="1.000000" stroke="none" 
	d="
M203.130463,183.730621 
	C203.067184,184.071091 202.877640,184.110977 202.398315,184.136658 
	C202.062027,183.793365 202.130341,183.490189 202.481873,183.047668 
	C202.768219,183.064941 202.886200,183.247498 203.130463,183.730621 
z"/>
<path fill="#F3F4F9" opacity="1.000000" stroke="none" 
	d="
M251.064423,343.994232 
	C251.064667,325.196716 251.028671,306.897980 251.086090,288.599518 
	C251.104202,282.829407 252.162003,277.472748 256.960480,273.386810 
	C262.011993,269.085480 267.470764,267.997406 273.594635,270.346771 
	C279.735840,272.702820 283.793427,277.277283 283.869843,283.768127 
	C284.163544,308.717163 284.163727,333.673798 283.881073,358.623138 
	C283.789337,366.722229 275.650452,374.003113 268.203888,373.774719 
	C258.409149,373.474274 251.533279,366.384430 251.092911,355.970337 
	C250.931412,352.151031 251.065231,348.319214 251.064423,343.994232 
z"/>
<path fill="#F3F5F9" opacity="1.000000" stroke="none" 
	d="
M165.764984,373.068665 
	C153.713074,373.033142 147.973572,367.289551 147.966919,355.641357 
	C147.953751,332.649597 147.954361,309.657806 147.968735,286.666046 
	C147.975082,276.521027 154.545715,269.237946 163.797073,269.058838 
	C173.150024,268.877747 180.051270,276.324463 180.058395,286.696075 
	C180.074661,310.354279 180.095169,334.012604 180.030121,357.670624 
	C180.006592,366.226471 174.564194,372.155334 165.764984,373.068665 
z"/>
<path fill="#5B62D3" opacity="1.000000" stroke="none" 
	d="
M251.237854,195.238556 
	C254.001328,196.000763 256.990723,197.023331 260.003845,198.418930 
	C257.172974,197.694275 254.318375,196.596588 251.237854,195.238556 
z"/>
<path fill="#5B62D3" opacity="1.000000" stroke="none" 
	d="
M240.019302,191.379211 
	C242.776031,192.038315 245.786636,192.953217 248.906113,194.162247 
	C246.101044,193.515930 243.187119,192.575470 240.019302,191.379211 
z"/>
<path fill="#5B62D3" opacity="1.000000" stroke="none" 
	d="
M265.959320,201.399155 
	C268.364807,202.295776 271.000244,203.456635 273.767853,204.948853 
	C271.329773,204.074585 268.759521,202.868988 265.959320,201.399155 
z"/>
<path fill="#5B62D3" opacity="1.000000" stroke="none" 
	d="
M261.145111,199.288956 
	C261.824066,199.235382 262.722748,199.432861 263.768372,199.956436 
	C263.065125,200.035019 262.214996,199.787506 261.145111,199.288956 
z"/>
</svg>