<?xml version="1.0" encoding="UTF-8"?>
<svg version="1.1" xmlns="http://www.w3.org/2000/svg" width="1080" height="1080">
<path d="M0 0 C356.4 0 712.8 0 1080 0 C1080 356.4 1080 712.8 1080 1080 C723.6 1080 367.2 1080 0 1080 C0 723.6 0 367.2 0 0 Z " fill="#4B50E7" transform="translate(0,0)"/>
<path d="M0 0 C356.4 0 712.8 0 1080 0 C1080 356.4 1080 712.8 1080 1080 C723.6 1080 367.2 1080 0 1080 C0 723.6 0 367.2 0 0 Z M462.625 18.25 C461.89773712 18.35604553 461.17047424 18.46209106 460.4211731 18.5713501 C445.79882041 20.71532757 431.36833871 23.5279925 417 27 C415.96246582 27.24943359 414.92493164 27.49886719 413.85595703 27.75585938 C365.37435776 39.63015002 317.90158271 58.46585955 275 84 C274.04544922 84.56187012 273.09089844 85.12374023 272.10742188 85.70263672 C248.49202272 99.62755189 226.00367858 115.36540859 205 133 C203.95316415 133.87114079 202.90628734 134.74223238 201.859375 135.61328125 C195.30913775 141.08742203 188.94708714 146.72781032 182.6875 152.53125 C180.55552808 154.48968932 178.397954 156.38254748 176.1875 158.25 C167.46196063 165.82068857 159.11291815 174.23345626 151.66015625 183.05859375 C149.54297538 185.53444997 147.33218171 187.91661268 145.125 190.3125 C140.20422698 195.7149752 135.5729951 201.30237581 131 207 C130.07610551 208.13198786 129.1515971 209.26347487 128.2265625 210.39453125 C72.09628334 279.34232803 35.40381273 362.68204809 20 450 C19.85079102 450.82693359 19.70158203 451.65386719 19.54785156 452.50585938 C14.76634585 479.25979017 13.50162499 505.77436596 13.60888672 532.88427734 C13.62600432 537.25497158 13.61579246 541.62511856 13.59855843 545.9957943 C13.53210783 565.89491759 14.22379927 585.26165964 17 605 C17.18326499 606.43108565 17.36380651 607.8625251 17.54052734 609.29443359 C17.95367908 612.57686828 18.40123105 615.85083436 18.875 619.125 C19.04080566 620.27129883 19.20661133 621.41759766 19.37744141 622.59863281 C26.42469036 669.90565025 40.77813971 715.9594069 60.78759766 759.36962891 C61.88691542 761.75465702 62.96761876 764.14706973 64.04296875 766.54296875 C80.35922648 802.49962976 102.30060001 836.26110198 127 867 C127.75023438 867.93457031 128.50046875 868.86914062 129.2734375 869.83203125 C142.48547782 886.12052139 156.44750985 901.52522932 171.25 916.375 C171.7218573 916.84953613 172.1937146 917.32407227 172.67987061 917.81298828 C177.74738122 922.90231406 182.85726562 927.87564718 188.31054688 932.55126953 C190.46456554 934.39837166 192.54071424 936.32487788 194.625 938.25 C200.26131169 943.33474602 206.21114625 947.96521375 212.21191406 952.60595703 C213.9223924 953.93949489 215.61608001 955.29126354 217.3046875 956.65234375 C232.9291473 969.20932552 249.53276671 980.23071134 266.67822266 990.58935547 C268.67650923 991.8034564 270.65977545 993.03676664 272.63671875 994.28515625 C327.45203221 1028.34577495 390.72657605 1049.46947208 454.0625 1060.25 C454.74935883 1060.36910736 455.43621765 1060.48821472 456.14389038 1060.6109314 C482.37113126 1065.11136133 508.41578563 1066.55451111 534.96661377 1066.44683075 C537.41394279 1066.43734912 539.86125047 1066.43251026 542.30859375 1066.42828369 C565.67707553 1066.37382341 588.82312055 1065.92489585 611.95880127 1062.31640625 C614.04239278 1061.99342869 616.12790659 1061.6867419 618.21435547 1061.3828125 C675.75363009 1052.89498389 730.12704919 1033.96448888 782 1008 C782.8883252 1007.55978516 783.77665039 1007.11957031 784.69189453 1006.66601562 C805.05722204 996.53027659 824.55997112 984.30631046 843 971 C843.76924805 970.44570313 844.53849609 969.89140625 845.33105469 969.3203125 C854.78540974 962.48242128 864.09254824 955.541196 873 948 C874.04251137 947.13096145 875.08550528 946.26250152 876.12890625 945.39453125 C882.60109291 939.98950549 888.90198726 934.43158218 895.08203125 928.6953125 C897.96331082 926.03388961 900.8858045 923.4237672 903.8125 920.8125 C907.51199503 917.4555508 910.84941222 914.01539847 914.05859375 910.1953125 C916.58578428 907.33760409 919.28535844 904.67850173 922 902 C926.54976384 897.49404407 930.86210043 892.89024495 935 888 C935.89997941 886.96261915 936.80112757 885.92625167 937.703125 884.890625 C944.73592949 876.79360083 951.50097718 868.53130448 958 860 C958.52819336 859.30841797 959.05638672 858.61683594 959.60058594 857.90429688 C978.01434779 833.67509711 993.76419705 807.86000557 1008 781 C1008.46696289 780.11957031 1008.93392578 779.23914063 1009.41503906 778.33203125 C1024.73790872 749.18917466 1036.98477518 717.66692415 1046 686 C1046.26377441 685.07606445 1046.52754883 684.15212891 1046.79931641 683.20019531 C1051.21332277 667.59502297 1055.00153528 651.93809487 1058 636 C1058.18159668 635.0394873 1058.36319336 634.07897461 1058.55029297 633.08935547 C1064.13334696 603.0217045 1066.22005419 572.78332306 1066.1875 542.25 C1066.18656342 541.11561493 1066.18562683 539.98122986 1066.18466187 538.81246948 C1066.11714405 501.0693479 1062.36157006 463.84722972 1054 427 C1053.71253906 425.73091797 1053.42507813 424.46183594 1053.12890625 423.15429688 C1044.88735844 387.05972894 1033.28157439 352.75460274 1018 319 C1017.60345215 318.12037598 1017.2069043 317.24075195 1016.79833984 316.33447266 C1010.33068596 302.08869061 1002.88985426 288.50278661 995 275 C994.49178711 274.12424316 993.98357422 273.24848633 993.45996094 272.34619141 C977.09533493 244.21715837 957.97984189 217.14356639 935.95703125 193.13671875 C934.20488515 191.22369696 932.50299234 189.27984717 930.8125 187.3125 C918.73485045 173.47759428 906.02015213 159.88559609 892 148 C890.91274589 147.05098545 889.82695122 146.10029767 888.7421875 145.1484375 C827.67802419 91.64490988 755.59904812 51.9721191 677 31 C675.67807974 30.62346736 674.35648615 30.24578666 673.03515625 29.8671875 C657.89586698 25.61687943 642.44814254 22.86105068 627 20 C626.05987061 19.82017578 625.11974121 19.64035156 624.15112305 19.45507812 C597.43452416 14.41374414 570.74414853 13.60907149 543.63824081 13.62393951 C541.28182004 13.62498587 538.92541943 13.62267336 536.56900024 13.62005615 C511.76667188 13.61012926 487.19320509 14.59285208 462.625 18.25 Z " fill="#FEFEFE" transform="translate(0,0)"/>
<path d="M0 0 C1.1741748 0.42659912 1.1741748 0.42659912 2.37207031 0.86181641 C12.11011415 4.45886948 21.43497429 8.60403399 30.6640625 13.34765625 C85.96095333 40.73709983 156.37900303 42.36359055 215 27 C215.76231934 26.80180664 216.52463867 26.60361328 217.31005859 26.39941406 C235.494946 21.52869464 253.19934533 13.68156072 270.01245117 5.31176758 C289.80098814 -4.4664539 315.53197344 -7.99472672 337 -2 C338.19109375 -1.68160156 339.3821875 -1.36320313 340.609375 -1.03515625 C357.12203061 3.61859589 371.80593389 11.49075878 386 21 C386.69625488 21.46422363 387.39250977 21.92844727 388.10986328 22.40673828 C398.7459048 29.55475889 408.52047737 37.38776898 418 46 C418.62600098 46.56428711 419.25200195 47.12857422 419.89697266 47.70996094 C426.66938577 53.82753954 433.18389927 59.95057434 439 67 C439.804375 67.91652344 440.60875 68.83304688 441.4375 69.77734375 C469.40751365 101.73366684 488.43175856 140.8358705 499.36816406 181.67675781 C499.92299559 183.71685705 500.51699659 185.74621926 501.1171875 187.7734375 C506.94185061 207.8662676 508.65979953 228.68120818 509.76635742 249.48583984 C509.91568981 252.12554863 509.91568981 252.12554863 511 255 C485.02462278 279.45144922 485.02462278 279.45144922 473 289 C472.36739258 289.50515137 471.73478516 290.01030273 471.08300781 290.53076172 C440.9027211 314.56847243 408.40966679 334.61902828 374 352 C373.14744629 352.4316748 372.29489258 352.86334961 371.41650391 353.30810547 C323.58621469 377.3217049 270.98847121 392.98663488 218.09588623 400.69140625 C216.0388207 400.99428412 213.98457196 401.31238678 211.93017578 401.6328125 C188.8082559 405.16299532 165.5776181 405.41824334 142.23828125 405.49085236 C139.86379742 405.49980656 137.48943064 405.51519833 135.11499023 405.53192139 C50.75572991 406.0458409 -31.56870805 383.05382964 -132.21386719 329.16064453 C-134.09539249 327.93801314 -135.99938485 326.75982 -137.9140625 325.58984375 C-147.91560044 319.475021 -157.5227869 312.89749992 -167 306 C-167.69158203 305.49678223 -168.38316406 304.99356445 -169.09570312 304.47509766 C-177.30965246 298.46917844 -185.25909699 292.24274666 -192.96484375 285.59765625 C-195.89289649 283.09166517 -198.87168156 280.66491319 -201.875 278.25 C-205.57942621 275.23713816 -209.00636777 272.12063611 -212.31640625 268.68359375 C-214.74610032 266.25389968 -217.36759221 264.06762556 -220.0078125 261.87109375 C-226.69536538 255.59003918 -226.69536538 255.59003918 -227.36816406 252.07836914 C-227.4140914 249.79241609 -227.27423518 247.5892273 -227.0625 245.3125 C-227.0011084 244.45962402 -226.9397168 243.60674805 -226.87646484 242.72802734 C-225.51657242 226.0567535 -222.952239 209.25637926 -219 193 C-218.66098758 191.51052373 -218.32248525 190.02093132 -217.984375 188.53125 C-208.56814443 148.0272836 -189.78251999 107.95267904 -163 76 C-162.50951172 75.40799805 -162.01902344 74.81599609 -161.51367188 74.20605469 C-149.92004538 60.26557021 -137.39940345 47.06679043 -123 36 C-122.02160156 35.21625 -121.04320312 34.4325 -120.03515625 33.625 C-86.86537779 7.22011057 -43.13631083 -15.9371124 0 0 Z " fill="#7B94FB" transform="translate(398,661)"/>
<path d="M0 0 C1.30562897 -0.01879211 1.30562897 -0.01879211 2.63763428 -0.03796387 C29.27679119 -0.34688884 53.66985348 1.61303941 78.76171875 11.2734375 C79.44282715 11.52287109 80.12393555 11.77230469 80.82568359 12.02929688 C103.65277039 20.39654 124.05712321 33.72736416 141.76171875 50.2734375 C143.44856138 51.75335378 145.13606927 53.23251211 146.82421875 54.7109375 C181.29131369 85.96681242 202.19185726 134.09380533 204.76171875 180.2734375 C207.27320725 236.10275197 187.93698512 285.96758598 150.76171875 327.2734375 C136.56002275 342.6177987 119.08036119 354.39490861 100.76171875 364.2734375 C99.74851562 364.84449219 98.7353125 365.41554688 97.69140625 366.00390625 C70.85529494 380.41100777 41.86611538 385.69535703 11.76171875 385.7734375 C10.40894333 385.78058273 10.40894333 385.78058273 9.02883911 385.78787231 C-6.81925409 385.8194656 -22.42107818 384.26946437 -37.73828125 380.0234375 C-38.8977124 379.70656982 -38.8977124 379.70656982 -40.08056641 379.38330078 C-61.2578376 373.42010313 -81.44556878 364.32814722 -99.23828125 351.2734375 C-99.76325195 350.88833008 -100.28822266 350.50322266 -100.82910156 350.10644531 C-108.32974492 344.56554826 -115.46985415 338.69610904 -122.23828125 332.2734375 C-123.67300781 330.91798828 -123.67300781 330.91798828 -125.13671875 329.53515625 C-136.67286605 318.43539086 -145.96485609 305.94048523 -154.23828125 292.2734375 C-154.79080566 291.38180908 -154.79080566 291.38180908 -155.35449219 290.47216797 C-174.06973441 260.0943919 -181.45947502 225.86575471 -181.48828125 190.5859375 C-181.48895599 189.83543121 -181.48963074 189.08492493 -181.49032593 188.31167603 C-181.47538307 177.8191339 -181.15277063 167.64962546 -178.734375 157.39892578 C-178.17921308 155.02036295 -177.69374773 152.63175461 -177.20703125 150.23828125 C-169.71077901 114.79908006 -151.07063289 83.28828208 -126.23828125 57.2734375 C-125.43777344 56.42007813 -124.63726562 55.56671875 -123.8125 54.6875 C-99.06793788 29.01147318 -65.69847528 12.2043213 -31.23828125 4.2734375 C-30.55942871 4.11504395 -29.88057617 3.95665039 -29.18115234 3.79345703 C-19.42317469 1.53788071 -10.00360982 0.1322423 0 0 Z " fill="#7A94FB" transform="translate(528.23828125,241.7265625)"/>
</svg>
